<svg xmlns="http://www.w3.org/2000/svg" data-name="Layer 1" width="200" height="200" viewBox="0 0 200 200" xmlns:xlink="http://www.w3.org/1999/xlink">
  <circle cx="100" cy="100" r="90" fill="#f2f2f2"/>
  <circle cx="100" cy="85" r="40" fill="#4361ee"/>
  <path d="M100,125c-22.06,0-40,17.94-40,40h80C140,142.94,122.06,125,100,125Z" fill="#4361ee"/>
  <path d="M120,85c0,11.05-8.95,20-20,20s-20-8.95-20-20,8.95-20,20-20S120,73.95,120,85Z" fill="#fff"/>
  <path d="M100,100c-8.28,0-15-6.72-15-15s6.72-15,15-15,15,6.72,15,15S108.28,100,100,100Zm0-25c-5.51,0-10,4.49-10,10s4.49,10,10,10,10-4.49,10-10S105.51,75,100,75Z" fill="#4361ee"/>
  <path d="M100,105c-13.81,0-25-11.19-25-25h5c0,11.03,8.97,20,20,20s20-8.97,20-20h5C125,93.81,113.81,105,100,105Z" fill="#4361ee"/>
  <circle cx="85" cy="80" r="5" fill="#4361ee"/>
  <circle cx="115" cy="80" r="5" fill="#4361ee"/>
</svg> 