<svg xmlns="http://www.w3.org/2000/svg" data-name="Layer 1" width="500" height="500" viewBox="0 0 500 500" xmlns:xlink="http://www.w3.org/1999/xlink">
  <path d="M391.82,136.3H108.18a8.17,8.17,0,0,0-8.16,8.16V355.54a8.17,8.17,0,0,0,8.16,8.16H391.82a8.17,8.17,0,0,0,8.16-8.16V144.46A8.17,8.17,0,0,0,391.82,136.3Z" fill="#f2f2f2"/>
  <path d="M377.82,158.3H122.18a8.17,8.17,0,0,0-8.16,8.16V341.54a8.17,8.17,0,0,0,8.16,8.16H377.82a8.17,8.17,0,0,0,8.16-8.16V166.46A8.17,8.17,0,0,0,377.82,158.3Z" fill="#fff"/>
  <path d="M391.82,136.3H108.18a8.17,8.17,0,0,0-8.16,8.16v26.53H400V144.46A8.17,8.17,0,0,0,391.82,136.3Z" fill="#4361ee"/>
  <circle cx="125.5" cy="153.65" r="7.5" fill="#fff"/>
  <circle cx="145.5" cy="153.65" r="7.5" fill="#fff"/>
  <circle cx="165.5" cy="153.65" r="7.5" fill="#fff"/>
  <rect x="150" y="208.65" width="200" height="15" rx="7.5" fill="#e6e6e6"/>
  <rect x="150" y="243.65" width="200" height="15" rx="7.5" fill="#e6e6e6"/>
  <rect x="150" y="278.65" width="200" height="15" rx="7.5" fill="#e6e6e6"/>
  <rect x="150" y="313.65" width="100" height="15" rx="7.5" fill="#4361ee"/>
  <path d="M250,88.65c-24.81,0-45-20.19-45-45h10c0,19.3,15.7,35,35,35s35-15.7,35-35h10C295,68.46,274.81,88.65,250,88.65Z" fill="#3f3d56"/>
  <path d="M250,411.35c24.81,0,45,20.19,45,45h-10c0-19.3-15.7-35-35-35s-35,15.7-35,35h-10C205,431.54,225.19,411.35,250,411.35Z" fill="#3f3d56"/>
  <circle cx="250" cy="250" r="40" fill="#4361ee"/>
  <path d="M265,240h-10v-10a5,5,0,0,0-10,0v10h-10a5,5,0,0,0,0,10h10v10a5,5,0,0,0,10,0v-10h10a5,5,0,0,0,0-10Z" fill="#fff"/>
</svg> 