<svg xmlns="http://www.w3.org/2000/svg" data-name="Layer 1" width="500" height="500" viewBox="0 0 500 500" xmlns:xlink="http://www.w3.org/1999/xlink">
  <circle cx="250" cy="250" r="120" fill="#f2f2f2"/>
  <path d="M391.82,136.3H108.18a8.17,8.17,0,0,0-8.16,8.16V355.54a8.17,8.17,0,0,0,8.16,8.16H391.82a8.17,8.17,0,0,0,8.16-8.16V144.46A8.17,8.17,0,0,0,391.82,136.3Z" fill="#fff"/>
  <path d="M377.82,158.3H122.18a8.17,8.17,0,0,0-8.16,8.16V341.54a8.17,8.17,0,0,0,8.16,8.16H377.82a8.17,8.17,0,0,0,8.16-8.16V166.46A8.17,8.17,0,0,0,377.82,158.3Z" fill="#fff"/>
  <rect x="150" y="190" width="200" height="15" rx="7.5" fill="#e6e6e6"/>
  <rect x="150" y="220" width="200" height="15" rx="7.5" fill="#e6e6e6"/>
  <rect x="150" y="250" width="200" height="15" rx="7.5" fill="#e6e6e6"/>
  <rect x="150" y="280" width="200" height="15" rx="7.5" fill="#e6e6e6"/>
  <rect x="150" y="310" width="100" height="15" rx="7.5" fill="#4361ee"/>
  <circle cx="250" cy="120" r="40" fill="#4361ee"/>
  <path d="M270,120c0,11.05-9.85,20-22,20s-22-8.95-22-20,9.85-20,22-20S270,108.95,270,120Z" fill="#fff"/>
  <circle cx="248" cy="110" r="6" fill="#4361ee"/>
  <path d="M270,142c0,11.05-9.85,20-22,20s-22-8.95-22-20,9.85-20,22-20S270,130.95,270,142Z" fill="#fff"/>
  <path d="M248,152c-8.28,0-15-6.72-15-15s6.72-15,15-15,15,6.72,15,15S256.28,152,248,152Zm0-25c-5.51,0-10,4.49-10,10s4.49,10,10,10,10-4.49,10-10S253.51,127,248,127Z" fill="#4361ee"/>
  <path d="M248,162c-13.81,0-25-11.19-25-25h5c0,11.03,8.97,20,20,20s20-8.97,20-20h5C273,150.81,261.81,162,248,162Z" fill="#4361ee"/>
  <path d="M250,380c-24.81,0-45,20.19-45,45h90C295,400.19,274.81,380,250,380Z" fill="#3f3d56"/>
  <path d="M250,75c24.81,0,45-20.19,45-45h-90C205,54.81,225.19,75,250,75Z" fill="#3f3d56"/>
</svg> 