<svg xmlns="http://www.w3.org/2000/svg" data-name="Layer 1" width="700" height="500" viewBox="0 0 700 500" xmlns:xlink="http://www.w3.org/1999/xlink">
  <path d="M539.98,276.83c-10.28-17.76-30.61-17.76-40.89,0c-10.28,17.76,5.14,32.33,20.44,32.33S550.26,294.6,539.98,276.83Z" fill="#4361ee"/>
  <path d="M510.83,272.5c-4.63-8.01-13.8-8.01-18.43,0c-4.63,8.01,2.32,14.57,9.22,14.57S515.46,280.5,510.83,272.5Z" fill="#fff"/>
  <rect x="465.87" y="277.7" width="148.34" height="171.9" rx="10" fill="#e6e6e6"/>
  <rect x="492.61" y="312.36" width="94.85" height="10" rx="3" fill="#4361ee"/>
  <rect x="492.61" y="338.36" width="94.85" height="10" rx="3" fill="#4361ee"/>
  <rect x="492.61" y="364.36" width="94.85" height="10" rx="3" fill="#4361ee"/>
  <rect x="492.61" y="390.36" width="94.85" height="10" rx="3" fill="#4361ee"/>
  <circle cx="478.7" cy="317.36" r="7" fill="#4361ee"/>
  <circle cx="478.7" cy="343.36" r="7" fill="#4361ee"/>
  <circle cx="478.7" cy="369.36" r="7" fill="#4361ee"/>
  <circle cx="478.7" cy="395.36" r="7" fill="#4361ee"/>
  <rect x="88.87" y="277.7" width="148.34" height="171.9" rx="10" fill="#e6e6e6"/>
  <rect x="115.61" y="312.36" width="94.85" height="10" rx="3" fill="#4361ee"/>
  <rect x="115.61" y="338.36" width="94.85" height="10" rx="3" fill="#4361ee"/>
  <rect x="115.61" y="364.36" width="94.85" height="10" rx="3" fill="#4361ee"/>
  <rect x="115.61" y="390.36" width="94.85" height="10" rx="3" fill="#4361ee"/>
  <circle cx="101.7" cy="317.36" r="7" fill="#4361ee"/>
  <circle cx="101.7" cy="343.36" r="7" fill="#4361ee"/>
  <circle cx="101.7" cy="369.36" r="7" fill="#4361ee"/>
  <circle cx="101.7" cy="395.36" r="7" fill="#4361ee"/>
  <rect x="277.37" y="190.2" width="148.34" height="171.9" rx="10" fill="#e6e6e6"/>
  <rect x="304.11" y="224.86" width="94.85" height="10" rx="3" fill="#4361ee"/>
  <rect x="304.11" y="250.86" width="94.85" height="10" rx="3" fill="#4361ee"/>
  <rect x="304.11" y="276.86" width="94.85" height="10" rx="3" fill="#4361ee"/>
  <rect x="304.11" y="302.86" width="94.85" height="10" rx="3" fill="#4361ee"/>
  <circle cx="290.2" cy="229.86" r="7" fill="#4361ee"/>
  <circle cx="290.2" cy="255.86" r="7" fill="#4361ee"/>
  <circle cx="290.2" cy="281.86" r="7" fill="#4361ee"/>
  <circle cx="290.2" cy="307.86" r="7" fill="#4361ee"/>
  <path d="M229.5,166.53c-19.08-32.95-56.8-32.95-75.88,0c-19.08,32.95,9.54,60,37.94,60S248.58,199.48,229.5,166.53Z" fill="#f72585"/>
  <circle cx="191.56" cy="168.2" r="22.47" fill="#fff"/>
  <polygon points="202.15 158.26 191.56 168.85 184.26 161.55 180.97 164.84 191.56 175.43 205.44 161.55 202.15 158.26" fill="#f72585"/>
  <path d="M455.16,136.67c-12.94-22.35-38.52-22.35-51.46,0c-12.94,22.35,6.47,40.7,25.73,40.7S468.1,159.01,455.16,136.67Z" fill="#f72585"/>
  <circle cx="429.43" cy="137.83" r="15.24" fill="#fff"/>
  <polygon points="436.56 131.15 429.43 138.28 424.44 133.29 422.15 135.58 429.43 142.86 438.85 133.44 436.56 131.15" fill="#f72585"/>
  <path d="M145.7,118.05c-10.28-17.76-30.61-17.76-40.89,0c-10.28,17.76,5.14,32.33,20.44,32.33S155.98,135.82,145.7,118.05Z" fill="#4361ee"/>
  <path d="M116.55,113.72c-4.63-8.01-13.8-8.01-18.43,0c-4.63,8.01,2.32,14.57,9.22,14.57S121.18,121.73,116.55,113.72Z" fill="#fff"/>
  <path d="M350.07,449.38H153.93a8.17,8.17,0,0,1-8.16-8.16V433.16a8.17,8.17,0,0,1,8.16-8.16H350.07a8.17,8.17,0,0,1,8.16,8.16v8.06A8.17,8.17,0,0,1,350.07,449.38Z" fill="#4361ee"/>
  <path d="M546.07,449.38H349.93a8.17,8.17,0,0,1-8.16-8.16V433.16a8.17,8.17,0,0,1,8.16-8.16H546.07a8.17,8.17,0,0,1,8.16,8.16v8.06A8.17,8.17,0,0,1,546.07,449.38Z" fill="#e6e6e6"/>
  <path d="M252,449.38c-23.57,0-42.75-19.18-42.75-42.75s19.18-42.75,42.75-42.75,42.75,19.18,42.75,42.75S275.57,449.38,252,449.38Zm0-81.5c-21.36,0-38.75,17.39-38.75,38.75s17.39,38.75,38.75,38.75,38.75-17.39,38.75-38.75S273.36,367.88,252,367.88Z" fill="#3f3d56"/>
  <path d="M448,449.38c-23.57,0-42.75-19.18-42.75-42.75s19.18-42.75,42.75-42.75,42.75,19.18,42.75,42.75S471.57,449.38,448,449.38Zm0-81.5c-21.36,0-38.75,17.39-38.75,38.75s17.39,38.75,38.75,38.75,38.75-17.39,38.75-38.75S469.36,367.88,448,367.88Z" fill="#3f3d56"/>
</svg> 